<svg xmlns="http://www.w3.org/2000/svg" width="128" height="128" viewBox="0 0 128 128">
  <rect width="128" height="128" rx="16" fill="#f8fafc"/>
  <!-- MongoDB leaf -->
  <g transform="translate(18, 20)">
    <path d="M18 4C18 4 10 14 10 28C10 42 16 52 18 56C20 52 26 42 26 28C26 14 18 4 18 4Z" fill="#4DB33D" stroke="#3A8A2E" stroke-width="1"/>
    <path d="M18 10C18 10 14 18 14 28C14 38 17 46 18 50" fill="none" stroke="#fff" stroke-width="1.5" opacity="0.5"/>
  </g>
  <!-- Arrow -->
  <g transform="translate(48, 44)">
    <path d="M0 8L16 8M12 3L18 8L12 13" fill="none" stroke="#64748b" stroke-width="2.5" stroke-linecap="round" stroke-linejoin="round"/>
  </g>
  <!-- SQLite cylinder -->
  <g transform="translate(74, 22)">
    <ellipse cx="18" cy="10" rx="18" ry="8" fill="#044a64" stroke="#02354d" stroke-width="1"/>
    <rect x="0" y="10" width="36" height="56" fill="#044a64"/>
    <ellipse cx="18" cy="66" rx="18" ry="8" fill="#033a52" stroke="#02354d" stroke-width="1"/>
    <ellipse cx="18" cy="10" rx="18" ry="8" fill="#0a7abf" stroke="#02354d" stroke-width="1"/>
    <ellipse cx="18" cy="38" rx="18" ry="8" fill="none" stroke="#0a7abf" stroke-width="0.5" opacity="0.4"/>
    <text x="18" y="46" text-anchor="middle" fill="#fff" font-size="10" font-family="Arial" font-weight="bold">DB</text>
  </g>
</svg>