<svg xmlns="http://www.w3.org/2000/svg" width="64" height="64" viewBox="0 0 64 64" fill="none">
  <rect x="4" y="4" width="56" height="56" rx="12" fill="#FFF7ED"/>
  <circle cx="32" cy="33" r="20" fill="#FB923C"/>
  <path d="M32 33 32 13a20 20 0 0 1 17.3 10Z" fill="#FDBA74"/>
  <path d="M32 33 14.7 43a20 20 0 0 1 0-20Z" fill="#FDBA74"/>
  <path d="M32 33 49.3 23a20 20 0 0 1 0 20Z" fill="#F97316"/>
  <path d="M32 33 32 53a20 20 0 0 1-17.3-10Z" fill="#F97316"/>
  <circle cx="32" cy="33" r="6" fill="#fff"/>
  <path d="M32 8l-4 6h8l-4-6Z" fill="#EA580C"/>
</svg>
